# xmcd CD database file
#
# Track frame offsets:
#	150
#	8627
#	37393
#	64048
#	87687
#	113242
#	153744
#	183763
#	213991
#
# Disc length: 3218 seconds
#
# Revision: 0
# Processed by: cddbd v1.5.2PL0 Copyright (c) Steve Scherf et al.
# Submitted via: CDex 1.70beta2
#
DISCID=7a0c9009
DTITLE=Daniel Freedman - Bamako by Bus
DYEAR=2009
DGENRE=Jazz
TTITLE0=Odudua
TTITLE1=Elegba Wa
TTITLE2=Deep Brooklyn
TTITLE3=Rumba pa'NYC
TTITLE4=Alona
TTITLE5=All Brothers
TTITLE6=Darfur/Oasis
TTITLE7=Saaba
TTITLE8=Bamako by Bus
EXTD=YEAR: 2009
EXTT0=
EXTT1=
EXTT2=
EXTT3=
EXTT4=
EXTT5=
EXTT6=
EXTT7=
EXTT8=
PLAYORDER=
